<?xml version="1.0" standalone="no"?>
<!DOCTYPE svg PUBLIC "-//W3C//DTD SVG 20010904//EN"
 "http://www.w3.org/TR/2001/REC-SVG-20010904/DTD/svg10.dtd">
<svg version="1.0" xmlns="http://www.w3.org/2000/svg"
 width="1187.000000pt" height="159.000000pt" viewBox="0 0 1187.000000 159.000000"
 preserveAspectRatio="xMidYMid meet">

<g transform="translate(0.000000,159.000000) scale(0.100000,-0.100000)"
fill="#ffffff" stroke="none">
<path d="M30 1263 c0 -164 3 -497 7 -741 l6 -442 1716 2 1715 3 278 700 c153
385 285 717 293 738 l15 37 -2015 0 -2015 0 0 -297z m3054 32 c143 -30 283
-124 358 -239 188 -291 21 -655 -347 -752 -61 -17 -110 -19 -385 -19 l-315 0
-111 288 c-62 159 -114 291 -116 293 -5 4 -98 -259 -98 -276 0 -6 31 -10 78
-10 l78 0 47 -132 c25 -73 49 -141 52 -150 7 -17 -13 -18 -330 -18 -297 0
-336 2 -331 15 3 8 82 226 175 483 93 257 172 475 176 485 6 15 24 17 159 17
l151 0 140 -358 140 -357 200 0 c166 1 210 4 257 19 191 62 239 269 89 383
-45 35 -125 63 -178 63 l-33 0 0 -190 0 -190 -140 0 -140 0 0 330 0 330 178 0
c116 0 201 -5 246 -15z"/>
<path d="M4535 1523 c-38 -98 -539 -1422 -543 -1435 -4 -17 8 -18 151 -18
l154 0 59 165 59 165 294 -2 295 -3 59 -162 60 -163 154 0 c84 0 153 3 153 7
0 4 -127 335 -282 735 l-282 728 -162 0 c-145 0 -163 -2 -169 -17z m273 -593
c50 -135 93 -253 97 -262 7 -17 -6 -18 -194 -18 -111 0 -201 4 -201 8 0 8 158
455 182 515 8 21 13 25 19 15 4 -8 48 -124 97 -258z"/>
<path d="M5640 800 l0 -730 165 0 165 0 2 477 3 478 355 -478 354 -477 178 0
178 0 0 730 0 730 -165 0 -165 0 -2 -485 -3 -484 -355 484 -355 484 -177 1
-178 0 0 -730z"/>
<path d="M7390 800 l0 -732 408 4 c376 4 413 6 483 26 237 65 390 232 445 484
20 95 21 326 0 429 -47 242 -187 411 -401 486 l-80 28 -427 3 -428 3 0 -731z
m698 480 c182 -24 283 -127 313 -320 14 -92 6 -325 -14 -396 -23 -81 -67 -153
-112 -184 -72 -50 -131 -61 -352 -67 l-203 -6 0 492 0 491 148 0 c81 0 180 -5
220 -10z"/>
<path d="M9020 800 l0 -730 610 0 610 0 0 120 0 120 -450 0 -450 0 0 205 0
205 405 0 405 0 0 120 0 120 -405 0 -405 0 0 165 0 165 435 0 435 0 0 120 0
120 -595 0 -595 0 0 -730z"/>
<path d="M10510 800 l0 -730 150 0 150 0 2 476 3 476 324 -476 323 -476 164 0
164 0 0 730 0 730 -150 0 -150 0 -2 -487 -3 -488 -328 488 -328 487 -160 0
-159 0 0 -730z"/>
</g>
</svg>
