<svg xmlns="http://www.w3.org/2000/svg" viewBox="0 0 151.091 132.526">
  <path fill="none" d="M-1 0h151.091v132.526H-1z" pointer-events="none"/>
  <path fill="#fff" d="M-59.104 44.108c0 8.325.152 25.228.355 37.614l.305 22.436 87.104-.102 87.054-.152 14.111-35.532c7.767-19.543 14.467-36.395 14.873-37.461l.762-1.878H-59.104v15.075zm155.022-1.624c7.258 1.523 14.365 6.294 18.172 12.132 9.543 14.771 1.066 33.248-17.614 38.171-3.096.863-5.584.965-19.543.965h-15.99L55.31 79.133c-3.148-8.07-5.787-14.771-5.889-14.873-.253-.203-4.974 13.147-4.974 14.01 0 .305 1.573.508 3.96.508h3.958l2.386 6.7c1.27 3.705 2.487 7.157 2.64 7.614.355.863-.66.914-16.751.914-15.076 0-17.056-.102-16.802-.762.152-.406 4.163-11.472 8.883-24.517 4.72-13.045 8.731-24.111 8.934-24.619.305-.761 1.218-.862 8.07-.862h7.666l7.106 18.172 7.107 18.121h10.152c8.426-.05 10.66-.203 13.045-.964 9.695-3.148 12.132-13.655 4.518-19.442-2.285-1.776-6.345-3.197-9.036-3.197h-1.675v19.288H74.395V41.723h9.036c5.888 0 10.202.254 12.487.761z"/>
</svg>
