<?xml version="1.0" encoding="utf-8"?>
<svg id="master-artboard" viewBox="0 0 151.0909423828125 132.5256805419922" version="1.1" xmlns="http://www.w3.org/2000/svg" x="0px" y="0px" style="enable-background:new 0 0 1400 980;" width="151.0909423828125px" height="132.5256805419922px"><rect id="ee-background" x="0" y="0" width="151.0909423828125" height="132.5256805419922" style="fill: white; fill-opacity: 0; pointer-events: none;" transform="matrix(1, 0, 0, 1, -1.0000000000000002, 0)"/>


<g transform="matrix(0.5116501450538635, 0, 0, 0.5116501450538635, -72.5408706665039, 243.81153869628906)"><g transform="matrix(0.09920877825075369, 0, 0, -0.09920877825075369, -27.89057948018729, 181.61787665620585)" fill="#000000" stroke="none">
<path d="M30 1263 c0 -164 3 -497 7 -741 l6 -442 1716 2 1715 3 278 700 c153&#10;385 285 717 293 738 l15 37 -2015 0 -2015 0 0 -297z m3054 32 c143 -30 283&#10;-124 358 -239 188 -291 21 -655 -347 -752 -61 -17 -110 -19 -385 -19 l-315 0&#10;-111 288 c-62 159 -114 291 -116 293 -5 4 -98 -259 -98 -276 0 -6 31 -10 78&#10;-10 l78 0 47 -132 c25 -73 49 -141 52 -150 7 -17 -13 -18 -330 -18 -297 0&#10;-336 2 -331 15 3 8 82 226 175 483 93 257 172 475 176 485 6 15 24 17 159 17&#10;l151 0 140 -358 140 -357 200 0 c166 1 210 4 257 19 191 62 239 269 89 383&#10;-45 35 -125 63 -178 63 l-33 0 0 -190 0 -190 -140 0 -140 0 0 330 0 330 178 0&#10;c116 0 201 -5 246 -15z" transform="matrix(1, 0, 0, 1, 515.8438995525057, 4501.9103960945895)"/>





</g></g></svg>